<svg xmlns="http://www.w3.org/2000/svg" width="1660" height="390" viewBox="0 0 1660 390" role="img" aria-labelledby="title desc">
  <title id="title">HACS zeigt den Essensplaner unter Ausstehende Aktualisierungen</title>
  <desc id="desc">Dunkle HACS-Übersicht mit dem Essensplaner in der Gruppe Ausstehende Aktualisierung.</desc>
  <rect width="1660" height="390" fill="#111315"/>
  <rect y="53" width="1660" height="1" fill="#303236"/>
  <text x="38" y="33" fill="#ffffff" font-family="Arial, sans-serif" font-size="22" font-weight="600">Home Assistant Community Store</text>
  <circle cx="1628" cy="21" r="2" fill="#a8adb3"/>
  <circle cx="1628" cy="27" r="2" fill="#a8adb3"/>
  <circle cx="1628" cy="33" r="2" fill="#a8adb3"/>

  <rect x="18" y="66" width="76" height="32" rx="8" fill="#171a1d" stroke="#3b3e43"/>
  <text x="49" y="87" fill="#ffffff" font-family="Arial, sans-serif" font-size="14">Filter</text>
  <rect x="111" y="66" width="1150" height="32" rx="8" fill="#171a1d" stroke="#3b3e43"/>
  <circle cx="131" cy="82" r="5" fill="none" stroke="#c9d1d9" stroke-width="2"/>
  <line x1="135" y1="86" x2="141" y2="92" stroke="#c9d1d9" stroke-width="2"/>
  <text x="155" y="87" fill="#b9c0c8" font-family="Arial, sans-serif" font-size="14">Durchsuchen</text>
  <rect x="1278" y="66" width="177" height="32" rx="8" fill="#171a1d" stroke="#3b3e43"/>
  <text x="1294" y="87" fill="#ffffff" font-family="Arial, sans-serif" font-size="13" font-weight="600">Gruppieren nach Status</text>
  <rect x="1471" y="66" width="128" height="32" rx="8" fill="#171a1d" stroke="#3b3e43"/>
  <text x="1490" y="87" fill="#ffffff" font-family="Arial, sans-serif" font-size="13" font-weight="600">Sortieren nach</text>

  <rect y="111" width="1660" height="55" fill="#181a1c"/>
  <text x="81" y="143" fill="#ffffff" font-family="Arial, sans-serif" font-size="12" font-weight="700">Repository-Name</text>
  <text x="704" y="143" fill="#ffffff" font-family="Arial, sans-serif" font-size="12" font-weight="700">Downloads</text>
  <text x="932" y="143" fill="#ffffff" font-family="Arial, sans-serif" font-size="12" font-weight="700">Sterne</text>
  <text x="1160" y="143" fill="#ffffff" font-family="Arial, sans-serif" font-size="12" font-weight="700">Aktivität</text>
  <text x="1390" y="143" fill="#ffffff" font-family="Arial, sans-serif" font-size="12" font-weight="700">Typ</text>

  <rect y="166" width="1660" height="54" fill="#101214"/>
  <path d="M33 201l5-5 5 5" fill="none" stroke="#ffffff" stroke-width="2" stroke-linecap="round" stroke-linejoin="round"/>
  <text x="61" y="203" fill="#ffffff" font-family="Arial, sans-serif" font-size="13" font-weight="700">Ausstehende Aktualisierung</text>

  <rect y="220" width="1660" height="52" fill="#1a1c1e"/>
  <rect x="26" y="228" width="32" height="32" fill="#d8d8d8"/>
  <text x="31" y="241" fill="#9aa0a6" font-family="Arial, sans-serif" font-size="6">icon not</text>
  <text x="32" y="249" fill="#9aa0a6" font-family="Arial, sans-serif" font-size="6">available</text>
  <text x="82" y="242" fill="#ffffff" font-family="Arial, sans-serif" font-size="13" font-weight="700">Essensplaner</text>
  <text x="82" y="260" fill="#b9c0c8" font-family="Arial, sans-serif" font-size="13">Essensplaner für Homeassistant</text>
  <text x="699" y="250" fill="#ffffff" font-family="Arial, sans-serif" font-size="12">-</text>
  <text x="927" y="250" fill="#ffffff" font-family="Arial, sans-serif" font-size="12" font-weight="700">8</text>
  <text x="1154" y="250" fill="#ffffff" font-family="Arial, sans-serif" font-size="12" font-weight="700">vor 6 Tagen</text>
  <text x="1381" y="250" fill="#ffffff" font-family="Arial, sans-serif" font-size="12" font-weight="700">Integration</text>
  <circle cx="1616" cy="246" r="24" fill="#2b2d31"/>
  <circle cx="1616" cy="238" r="2" fill="#a8adb3"/>
  <circle cx="1616" cy="246" r="2" fill="#a8adb3"/>
  <circle cx="1616" cy="254" r="2" fill="#a8adb3"/>

  <rect y="272" width="1660" height="52" fill="#101214"/>
  <path d="M33 306l5-5 5 5" fill="none" stroke="#ffffff" stroke-width="2" stroke-linecap="round" stroke-linejoin="round"/>
  <text x="61" y="308" fill="#ffffff" font-family="Arial, sans-serif" font-size="13" font-weight="700">Heruntergeladen</text>

  <rect y="324" width="1660" height="52" fill="#1a1c1e"/>
  <rect x="26" y="332" width="32" height="32" fill="#39bdf8"/>
  <text x="35" y="356" fill="#ffffff" font-family="Arial, sans-serif" font-size="8" font-weight="700">HACS</text>
  <text x="82" y="346" fill="#ffffff" font-family="Arial, sans-serif" font-size="13" font-weight="700">HACS</text>
  <text x="82" y="364" fill="#b9c0c8" font-family="Arial, sans-serif" font-size="13">HACS gives you a powerful UI to handle downloads of all your custom needs.</text>
  <text x="699" y="354" fill="#ffffff" font-family="Arial, sans-serif" font-size="12" font-weight="700">3283587</text>
  <text x="927" y="354" fill="#ffffff" font-family="Arial, sans-serif" font-size="12" font-weight="700">7452</text>
  <text x="1154" y="354" fill="#ffffff" font-family="Arial, sans-serif" font-size="12" font-weight="700">vor 6 Tagen</text>
  <text x="1381" y="354" fill="#ffffff" font-family="Arial, sans-serif" font-size="12" font-weight="700">Integration</text>
</svg>
